<svg version="1.1" id="Layer_1" xmlns="http://www.w3.org/2000/svg" xmlns:xlink="http://www.w3.org/1999/xlink" x="0px" y="0px"
	 width="100%" viewBox="0 0 500 500" enable-background="new 0 0 500 500" xml:space="preserve">
<path fill="#000000" opacity="1.000000" stroke="none" 
	d="
M321.000000,501.000000 
	C214.000031,501.000000 107.500053,501.000000 1.000057,501.000000 
	C1.000038,334.333405 1.000038,167.666794 1.000019,1.000147 
	C167.666565,1.000098 334.333130,1.000098 500.999756,1.000049 
	C500.999847,167.666519 500.999847,334.333038 500.999939,500.999786 
	C441.166656,501.000000 381.333344,501.000000 321.000000,501.000000 
M5.033505,304.766418 
	C5.949486,319.162231 11.610495,331.251251 22.975830,340.273834 
	C30.810211,346.493317 39.360832,351.354736 50.367970,351.755890 
	C51.353718,351.838715 52.339462,351.994019 53.325218,351.994080 
	C162.571274,352.002502 271.817322,352.004913 381.063385,351.992371 
	C404.376160,351.989685 427.688934,351.930237 451.804565,351.883606 
	C453.428680,351.597260 455.052490,351.308960 456.677002,351.024841 
	C479.371857,347.056122 497.563934,325.196472 497.836365,302.735199 
	C497.895782,268.105469 497.960571,233.475754 497.971344,198.846008 
	C497.971527,198.234726 497.323608,197.623245 496.986877,196.150101 
	C497.015533,195.156265 497.209381,194.134811 497.048615,193.172623 
	C493.255707,170.473770 474.085724,150.702744 448.586212,149.164780 
	C447.757935,149.109299 446.929688,149.005280 446.101410,149.005219 
	C315.876495,148.997391 185.651566,148.994568 55.426662,149.036362 
	C54.288864,149.036728 53.151257,149.641159 51.495117,150.070862 
	C51.321365,150.101761 51.147614,150.132675 50.490738,150.085449 
	C50.490738,150.085449 50.001472,150.096909 49.184677,149.984283 
	C25.203146,152.495758 5.785386,174.338760 4.166154,197.362869 
	C4.111264,232.245346 4.051153,267.127808 4.042534,302.010284 
	C4.042377,302.645416 4.656765,303.280670 5.033505,304.766418 
z"/>
<path fill="#3E084D" opacity="1.000000" stroke="none" 
	d="
M49.895702,351.013092 
	C39.360832,351.354736 30.810211,346.493317 22.975830,340.273834 
	C11.610495,331.251251 5.949486,319.162231 5.018227,303.877899 
	C5.002466,267.689026 5.001983,232.388672 5.001500,197.088318 
	C5.785386,174.338760 25.203146,152.495758 49.703270,150.115463 
	C50.221859,150.246643 50.606777,150.302917 50.606777,150.302917 
	C50.606777,150.302917 50.973862,150.163574 50.973862,150.163574 
	C51.147614,150.132675 51.321365,150.101761 52.005260,150.068451 
	C52.680874,150.107346 52.846348,150.148666 53.382919,150.364456 
	C55.569603,150.693405 57.385170,150.982834 59.200790,150.983124 
	C186.679993,151.004044 314.159180,151.005905 441.638397,150.966873 
	C443.759644,150.966232 445.880768,150.445053 448.222015,150.091309 
	C448.442078,150.015823 448.905518,149.974564 448.905518,149.974564 
	C474.085724,150.702744 493.255707,170.473770 497.048615,193.172623 
	C497.209381,194.134811 497.015533,195.156265 496.965515,197.047974 
	C496.954865,232.957336 496.965515,267.968811 496.976196,302.980286 
	C497.563934,325.196472 479.371857,347.056122 456.677002,351.024841 
	C455.052490,351.308960 453.428680,351.597260 451.083069,351.622314 
	C449.042053,351.242828 447.722534,351.021179 446.403015,351.021057 
	C314.233917,351.007599 182.064804,351.010864 49.895702,351.013092 
M282.591370,282.382538 
	C282.478668,282.531006 282.365936,282.679504 281.845123,282.926575 
	C281.658783,283.277008 281.472412,283.627472 280.989471,284.323975 
	C280.989471,284.323975 280.755157,284.714996 280.156830,284.950562 
	C279.004730,286.196198 277.852600,287.441833 276.855896,288.903046 
	C276.855896,288.903046 276.731537,288.668182 276.034485,288.754150 
	C274.663239,289.465424 273.292023,290.176697 271.191559,290.991486 
	C270.482758,291.197784 269.773987,291.404053 268.165314,291.445312 
	C260.381836,291.409698 260.358704,291.409698 260.358490,283.715454 
	C260.357971,263.893494 260.367493,244.071548 260.399414,224.249634 
	C260.410858,217.143646 260.449615,217.205719 267.395752,216.733475 
	C268.929932,216.629181 270.422668,215.915207 272.813721,215.230026 
	C266.591400,211.907578 232.350800,212.580811 229.554825,216.204758 
	C235.113052,215.951752 237.004974,218.470963 236.913330,223.656067 
	C236.586670,242.139709 236.794327,260.632233 236.578339,279.118805 
	C236.514755,284.561157 239.411026,291.624298 229.369263,292.834015 
	C229.687683,293.452271 230.006104,294.070557 230.324524,294.688812 
	C233.167969,294.688812 236.011398,294.688812 239.808701,294.716248 
	C245.840500,294.683746 251.872314,294.651245 258.574432,294.935974 
	C260.685120,294.863922 262.795837,294.791840 265.671295,294.778290 
	C273.740387,294.713776 281.809448,294.649261 290.590363,294.608368 
	C291.200287,290.701660 291.810211,286.794983 292.579254,282.156586 
	C292.626465,281.410248 292.673676,280.663879 293.056213,279.335052 
	C293.052795,277.546082 293.049408,275.757111 293.161163,273.177643 
	C293.220978,272.115265 293.280823,271.052887 293.646759,269.494049 
	C293.176147,268.798218 292.705505,268.102386 292.234894,267.406555 
	C291.313721,268.642731 290.392517,269.878876 289.204285,271.578339 
	C289.148499,271.747650 289.092712,271.916962 288.587738,272.480988 
	C288.166809,273.348480 287.745850,274.215942 287.036316,275.545349 
	C286.898499,275.880707 286.760681,276.216034 286.193268,276.859283 
	C286.044098,277.171875 285.894897,277.484497 285.427246,278.146942 
	C285.427246,278.146942 285.196442,278.559906 284.711792,278.803345 
	C284.302155,279.571991 283.892548,280.340607 283.266785,281.361572 
	C283.266785,281.361572 283.130371,281.664490 282.940857,281.653259 
	C282.940857,281.653259 282.967743,281.968903 282.591370,282.382538 
M213.702774,217.320953 
	C213.702774,217.320953 213.557495,217.265396 213.102859,216.794495 
	C210.028687,216.124054 206.954498,215.453629 203.390198,214.657257 
	C203.056946,214.606445 202.723679,214.555649 201.787064,214.043442 
	C192.762146,211.924011 159.155594,212.670486 156.491959,215.049545 
	C163.174973,219.048904 163.170319,219.048904 163.168625,227.915512 
	C163.165146,246.066559 163.033676,264.219177 163.250763,282.367645 
	C163.313431,287.606598 163.195480,292.062836 156.580490,292.739777 
	C156.354187,292.762970 156.204224,293.532074 155.684662,294.712128 
	C158.796295,294.712128 161.466217,294.712128 165.009567,294.773834 
	C167.348251,294.680481 169.686920,294.587128 172.836960,294.686249 
	C174.212540,294.592560 175.588135,294.498840 177.803680,294.651459 
	C179.555908,294.687347 181.308121,294.723206 183.653397,295.089264 
	C189.433762,294.593903 195.467865,296.834320 201.085739,293.254333 
	C198.047562,292.081757 194.987747,291.708557 191.922516,291.657013 
	C188.382843,291.597504 186.840988,290.042084 186.929886,286.466400 
	C187.061691,281.165497 186.935654,275.858582 186.957138,270.554413 
	C186.991516,262.066711 187.064651,262.523010 195.268707,261.443420 
	C201.525665,260.620056 207.605667,258.452026 213.894455,256.853455 
	C213.894455,256.853455 214.008377,256.784424 214.517181,256.769257 
	C214.878754,256.435516 215.240311,256.101776 215.918488,255.541443 
	C215.918488,255.541443 216.199722,255.272186 216.883118,255.145493 
	C221.820816,252.083450 224.351746,247.657700 224.628113,241.141846 
	C224.690567,240.420273 224.753006,239.698700 225.117508,238.464478 
	C225.025543,237.317902 224.933563,236.171341 224.851227,234.245605 
	C224.666763,233.228378 224.482300,232.211136 224.442566,230.449722 
	C222.868988,227.478546 221.295410,224.507355 219.407013,221.221451 
	C219.407013,221.221451 219.047256,220.959244 218.789948,220.371964 
	C217.887039,219.874420 216.984116,219.376862 215.768768,218.667603 
	C215.768768,218.667603 215.428253,218.504822 215.169998,218.064148 
	C214.721039,217.849274 214.272064,217.634399 213.702774,217.320953 
M427.237213,265.810822 
	C427.237213,265.810822 427.321716,265.821686 427.213226,265.098419 
	C424.596741,260.488770 422.129333,255.785294 419.308472,251.304321 
	C417.584442,248.565674 417.512604,246.282333 419.269318,243.549911 
	C425.095581,234.487457 430.764771,225.324036 437.196503,216.253250 
	C439.172363,215.898865 441.148224,215.544464 443.124084,215.190079 
	C443.011688,214.810257 442.899323,214.430420 442.786926,214.050598 
	C435.387970,214.050598 427.989014,214.050598 420.590057,214.050598 
	C420.582428,214.787704 420.574799,215.524826 420.567169,216.261932 
	C424.159363,216.261932 427.751556,216.261932 431.107208,217.051437 
	C430.974091,217.584320 430.840973,218.117203 430.379425,218.820633 
	C430.233459,219.137985 430.087494,219.455338 429.414581,220.343002 
	C425.430450,226.674194 421.436768,232.999374 417.466492,239.339233 
	C415.676422,242.197647 414.008575,242.137512 412.388123,239.209152 
	C410.536865,235.863632 408.662811,232.530563 406.835052,229.172272 
	C404.743774,225.329666 402.692596,221.465271 400.654694,217.667542 
	C402.943207,216.310577 404.471741,215.404251 407.066498,213.865692 
	C393.543610,213.865692 381.462158,213.865692 370.035004,213.865692 
	C373.086487,217.236633 376.134491,220.603745 379.294586,224.455811 
	C379.294586,224.455811 379.569977,224.870483 379.660248,225.537567 
	C385.034851,235.109894 390.316650,244.736267 395.839081,254.222549 
	C397.560242,257.179108 397.639709,259.614410 395.817261,262.527069 
	C391.580597,269.298187 387.551758,276.200378 383.494293,283.082245 
	C380.744354,287.746399 378.759766,293.300232 371.648804,292.492950 
	C371.409302,292.465759 371.083710,293.197205 370.254089,294.295258 
	C378.643005,294.295258 386.406372,294.295258 394.169739,294.295258 
	C394.216919,293.788635 394.264069,293.282013 394.311249,292.775391 
	C390.956299,292.360748 387.601349,291.946136 383.143188,291.395172 
	C388.965454,281.775818 394.305511,272.953186 399.645569,264.130524 
	C400.273590,264.109344 400.901642,264.088165 401.529663,264.066986 
	C406.110718,272.440033 410.729767,280.793091 415.171967,289.239166 
	C415.420197,289.711121 414.389740,291.187653 413.628601,291.772675 
	C412.718781,292.471924 411.457916,292.714478 410.349121,293.154846 
	C410.429504,293.741760 410.509918,294.328674 410.590332,294.915588 
	C423.452423,294.902130 436.316833,295.139252 449.576630,293.650757 
	C442.840851,293.331543 440.933990,288.329285 438.420654,283.924866 
	C436.365631,280.323669 434.120270,276.831055 431.657928,272.639313 
	C430.194244,270.336517 428.730560,268.033722 427.237213,265.810822 
M341.333679,258.758820 
	C343.231567,262.797913 345.129486,266.837036 347.027405,270.876160 
	C347.397400,270.744507 347.767395,270.612885 348.137390,270.481262 
	C348.137390,259.493774 348.137390,248.506302 348.137390,237.518829 
	C347.693787,237.430054 347.250214,237.341278 346.806610,237.252502 
	C346.092316,239.004639 345.464325,240.798233 344.646759,242.500793 
	C342.560364,246.845566 339.826233,250.439850 334.628967,251.378159 
	C330.707031,252.086212 328.631836,251.165787 328.745300,246.646912 
	C328.954254,238.325241 328.951630,229.991852 328.765198,221.669418 
	C328.675049,217.644821 330.421448,216.571182 334.162018,216.553406 
	C343.722504,216.508011 350.248840,221.016754 354.562134,229.250320 
	C355.881622,231.769028 357.240204,234.267273 358.580872,236.774887 
	C359.743103,230.400818 359.620697,224.529419 359.784729,218.666016 
	C359.900513,214.527527 358.111908,213.275650 354.088684,213.314560 
	C337.271606,213.477325 320.451813,213.348343 303.633209,213.396561 
	C302.179718,213.400726 300.727661,213.919556 298.225128,214.401459 
	C299.756714,215.572083 300.240814,216.262085 300.718658,216.257782 
	C305.465363,216.215027 305.872406,219.196899 305.793518,222.929565 
	C305.638794,230.254044 305.728516,237.583740 305.724701,244.911285 
	C305.717529,258.733734 305.683136,272.556274 305.736053,286.378510 
	C305.748352,289.583496 305.205933,292.032684 301.214081,291.940399 
	C300.586029,291.925873 299.941650,292.616974 298.143311,293.647278 
	C300.457642,294.291992 301.589264,294.879303 302.722504,294.882324 
	C321.373627,294.931885 340.025085,294.865356 358.676025,294.939819 
	C361.998230,294.953064 362.987640,293.430817 363.023102,290.382355 
	C363.090790,284.557404 363.432831,278.736023 363.548309,272.910919 
	C363.571045,271.763092 363.085419,270.605194 362.816620,269.371063 
	C361.895782,269.692291 361.424713,269.710266 361.315735,269.918121 
	C360.545776,271.386719 359.859589,272.898926 359.129333,274.388702 
	C354.147217,284.553040 346.468597,290.833313 334.800262,291.721649 
	C330.539703,292.046021 328.619873,290.703094 328.749420,286.230591 
	C328.946991,279.408447 328.794983,272.576202 328.794373,265.748260 
	C328.793365,253.946701 328.794342,253.946701 340.392365,257.420258 
	C340.666107,257.636017 340.939850,257.851776 341.333679,258.758820 
M82.088104,213.792099 
	C74.394402,213.820709 66.700706,213.849335 58.356461,213.628891 
	C56.508621,213.789886 54.660782,213.950882 52.812943,214.111893 
	C52.845509,214.768585 52.878071,215.425293 52.910637,216.082001 
	C55.257809,216.082001 57.604977,216.082001 60.103512,216.998413 
	C60.125259,240.650772 60.140526,264.303131 60.179306,287.955475 
	C60.182968,290.190308 60.386105,292.459930 56.429497,292.203217 
	C55.203667,292.388611 53.977833,292.574005 52.752003,292.759369 
	C52.791817,293.368866 52.831631,293.978363 52.871445,294.587860 
	C54.293392,294.587860 55.715343,294.587860 58.052429,294.679688 
	C67.322990,294.644867 76.593544,294.610046 86.586037,294.802734 
	C87.829811,294.603363 89.073586,294.404022 90.317360,294.204651 
	C90.275772,293.602509 90.234192,293.000336 90.192604,292.398193 
	C88.755264,292.398193 87.317924,292.398193 85.015335,292.256348 
	C84.325996,291.696381 83.035515,291.136108 83.035774,290.576447 
	C83.041504,278.467163 83.187309,266.357819 83.341568,254.248993 
	C83.344635,254.007950 83.771584,253.772308 84.872414,253.708298 
	C94.812233,253.902405 96.559029,255.645645 96.808723,265.781921 
	C96.919342,270.272644 96.805824,274.771057 96.998947,279.257172 
	C97.501480,290.930511 102.609100,295.857178 114.230759,295.765656 
	C117.028870,295.743622 119.910118,295.396729 122.599266,294.647186 
	C128.481079,293.007843 132.224091,284.939697 129.729050,278.993347 
	C129.027863,281.344482 128.785782,283.586548 127.714043,285.313873 
	C126.795181,286.794800 124.926880,287.686707 123.478470,288.839111 
	C122.586487,287.418671 121.049904,286.056030 120.916481,284.567596 
	C120.397537,278.778503 120.465454,272.939270 120.047501,267.137970 
	C119.568542,260.489807 116.148636,255.987259 109.635895,254.021973 
	C108.395355,253.647629 107.184082,253.176270 105.308502,252.522964 
	C107.927200,251.869492 109.846741,251.454880 111.728188,250.909012 
	C117.647240,249.191727 121.847549,245.556458 122.733681,239.312149 
	C123.774704,231.976288 124.302841,224.363708 117.621521,219.108353 
	C115.323898,217.301086 111.987778,216.585190 109.003143,215.934937 
	C104.733788,215.004761 100.351517,214.592911 95.789200,213.769623 
	C95.472878,213.676926 95.200943,213.740891 94.474663,213.931580 
	C94.474663,213.931580 93.991890,214.060181 93.093658,213.871979 
	C89.734161,213.900024 86.374672,213.928070 82.088104,213.792099 
z"/>
<path fill="#664C6F" opacity="1.000000" stroke="none" 
	d="
M50.131836,351.384491 
	C182.064804,351.010864 314.233917,351.007599 446.403015,351.021057 
	C447.722534,351.021179 449.042053,351.242828 450.681641,351.628967 
	C427.688934,351.930237 404.376160,351.989685 381.063385,351.992371 
	C271.817322,352.004913 162.571274,352.002502 53.325218,351.994080 
	C52.339462,351.994019 51.353718,351.838715 50.131836,351.384491 
z"/>
<path fill="#D5BBDE" opacity="1.000000" stroke="none" 
	d="
M448.745850,149.569672 
	C448.905518,149.974564 448.442078,150.015823 447.756531,150.023743 
	C317.045654,150.017197 187.020355,150.002106 56.995033,149.996597 
	C55.667301,149.996552 54.339558,150.122726 53.011822,150.189987 
	C52.846348,150.148666 52.680874,150.107346 52.264481,150.014801 
	C53.151257,149.641159 54.288864,149.036728 55.426662,149.036362 
	C185.651566,148.994568 315.876495,148.997391 446.101410,149.005219 
	C446.929688,149.005280 447.757935,149.109299 448.745850,149.569672 
z"/>
<path fill="#D8C6D9" opacity="1.000000" stroke="none" 
	d="
M4.583827,197.225586 
	C5.001983,232.388672 5.002466,267.689026 4.993679,303.452637 
	C4.656765,303.280670 4.042377,302.645416 4.042534,302.010284 
	C4.051153,267.127808 4.111264,232.245346 4.583827,197.225586 
z"/>
<path fill="#D7C6DB" opacity="1.000000" stroke="none" 
	d="
M497.406281,302.857727 
	C496.965515,267.968811 496.954865,232.957336 496.961151,197.478851 
	C497.323608,197.623245 497.971527,198.234726 497.971344,198.846008 
	C497.960571,233.475754 497.895782,268.105469 497.406281,302.857727 
z"/>
<path fill="#360E42" opacity="1.000000" stroke="none" 
	d="
M50.732300,150.124512 
	C50.973862,150.163574 50.606777,150.302917 50.606777,150.302917 
	C50.606777,150.302917 50.221859,150.246643 50.111664,150.171783 
	C50.001472,150.096909 50.490738,150.085449 50.732300,150.124512 
z"/>
<path fill="#C96BE3" opacity="1.000000" stroke="none" 
	d="
M96.017456,213.959717 
	C100.351517,214.592911 104.733788,215.004761 109.003143,215.934937 
	C111.987778,216.585190 115.323898,217.301086 117.621521,219.108353 
	C124.302841,224.363708 123.774704,231.976288 122.733681,239.312149 
	C121.847549,245.556458 117.647240,249.191727 111.728188,250.909012 
	C109.846741,251.454880 107.927200,251.869492 105.308502,252.522964 
	C107.184082,253.176270 108.395355,253.647629 109.635895,254.021973 
	C116.148636,255.987259 119.568542,260.489807 120.047501,267.137970 
	C120.465454,272.939270 120.397537,278.778503 120.916481,284.567596 
	C121.049904,286.056030 122.586487,287.418671 123.478470,288.839111 
	C124.926880,287.686707 126.795181,286.794800 127.714043,285.313873 
	C128.785782,283.586548 129.027863,281.344482 129.729050,278.993347 
	C132.224091,284.939697 128.481079,293.007843 122.599266,294.647186 
	C119.910118,295.396729 117.028870,295.743622 114.230759,295.765656 
	C102.609100,295.857178 97.501480,290.930511 96.998947,279.257172 
	C96.805824,274.771057 96.919342,270.272644 96.808723,265.781921 
	C96.559029,255.645645 94.812233,253.902405 84.442596,253.342133 
	C84.021454,252.603882 84.030128,252.231781 84.431831,251.757812 
	C95.535408,250.726425 98.730011,247.462463 99.210289,236.645401 
	C99.364708,233.167343 99.780548,229.496780 98.896095,226.234360 
	C98.017494,222.993515 95.653564,220.155365 93.879532,216.883759 
	C93.875999,215.771317 93.933945,214.915756 93.991890,214.060181 
	C93.991890,214.060181 94.474663,213.931580 94.984940,213.992218 
	C95.669289,214.021805 95.843369,213.990768 96.017456,213.959717 
z"/>
<path fill="#C86AE2" opacity="1.000000" stroke="none" 
	d="
M84.038803,251.859680 
	C84.030128,252.231781 84.021454,252.603882 84.006775,253.255066 
	C83.771584,253.772308 83.344635,254.007950 83.341568,254.248993 
	C83.187309,266.357819 83.041504,278.467163 83.035774,290.576447 
	C83.035515,291.136108 84.325996,291.696381 85.449158,292.600159 
	C85.876678,293.487701 85.870392,294.031433 85.864105,294.575195 
	C76.593544,294.610046 67.322990,294.644867 57.592117,294.364136 
	C57.132614,293.511139 57.133423,292.973724 57.134232,292.436310 
	C60.386105,292.459930 60.182968,290.190308 60.179306,287.955475 
	C60.140526,264.303131 60.125259,240.650772 59.918594,216.260895 
	C59.491451,214.974915 59.249226,214.426422 59.007004,213.877945 
	C66.700706,213.849335 74.394402,213.820709 82.556335,214.218170 
	C83.038002,215.102875 83.051430,215.561478 83.000473,216.485443 
	C82.908684,227.050278 82.831009,237.150162 82.907364,247.248886 
	C82.918999,248.788574 83.643837,250.322876 84.038803,251.859680 
z"/>
<path fill="#FC3233" opacity="1.000000" stroke="none" 
	d="
M257.904114,294.618713 
	C251.872314,294.651245 245.840500,294.683746 239.115509,294.469696 
	C238.240158,290.684082 237.908646,287.145386 237.900421,283.605927 
	C237.851608,262.619049 237.956863,241.631424 237.812851,220.645432 
	C237.783600,216.383682 239.116943,214.485489 243.555740,214.816284 
	C247.200043,215.087891 250.883652,214.971985 254.543823,214.848877 
	C257.755951,214.740845 258.921600,216.086426 258.909912,219.307999 
	C258.826660,242.281464 258.897278,265.255463 258.833496,288.229065 
	C258.827576,290.359802 258.228027,292.488861 257.904114,294.618713 
z"/>
<path fill="#FD3231" opacity="1.000000" stroke="none" 
	d="
M379.569977,224.870483 
	C379.569977,224.870483 379.294586,224.455811 379.356659,223.943878 
	C378.593048,220.969055 377.767395,218.506165 376.967499,216.019440 
	C376.993286,215.995621 377.040710,215.943848 377.455688,215.901520 
	C382.839905,215.587387 387.809418,215.143936 392.778076,215.154053 
	C394.170685,215.156876 395.898499,216.190704 396.881958,217.283249 
	C398.981262,219.615433 400.712433,222.282211 402.561859,224.835510 
	C407.435822,231.564346 408.798981,240.437668 415.525574,246.066422 
	C416.041901,246.498505 415.794220,247.738907 416.214081,248.407379 
	C419.876160,254.237549 423.609528,260.022980 427.321716,265.821686 
	C427.321716,265.821686 427.237213,265.810822 427.246033,266.144714 
	C428.768829,269.027039 430.282806,271.575439 431.849670,274.495239 
	C434.183594,279.259155 436.656708,283.568420 438.620941,288.098328 
	C439.164154,289.351074 438.256226,292.645935 437.908173,292.661652 
	C432.113434,292.923645 426.221039,293.340698 420.542053,292.471222 
	C418.779694,292.201385 417.564178,288.228424 416.136597,285.927063 
	C410.900208,277.485596 405.439301,269.171570 400.515167,260.551270 
	C394.514435,250.046234 389.018829,239.253632 383.172546,228.658356 
	C382.358154,227.182480 380.789459,226.122818 379.569977,224.870483 
z"/>
<path fill="#FE3131" opacity="1.000000" stroke="none" 
	d="
M176.963715,294.405151 
	C175.588135,294.498840 174.212540,294.592560 172.393372,294.278015 
	C170.896774,293.113159 169.902176,292.250671 168.774994,291.628357 
	C167.543900,290.948669 166.190079,290.491272 164.864975,289.472778 
	C164.882339,265.686981 164.924500,242.365387 165.305298,218.906067 
	C169.180588,217.842346 172.676773,216.389664 176.263443,216.113892 
	C181.632202,215.701111 184.601700,219.219376 184.465134,224.681152 
	C184.204468,235.105576 183.942932,245.531036 183.872513,255.957367 
	C183.865707,256.963013 185.196976,257.977722 186.091080,259.200104 
	C186.113358,260.267151 185.951675,261.122284 185.499420,262.132324 
	C184.679977,263.925476 183.716568,265.559265 183.699432,267.202911 
	C183.634064,273.462372 183.812454,279.727051 184.024170,285.985596 
	C184.141998,289.468475 183.834259,292.313293 179.228165,292.235474 
	C178.485779,292.222931 177.719131,293.645813 176.963715,294.405151 
z"/>
<path fill="#DB3343" opacity="1.000000" stroke="none" 
	d="
M339.948334,257.147766 
	C328.794342,253.946701 328.793365,253.946701 328.794373,265.748260 
	C328.794983,272.576202 328.946991,279.408447 328.749420,286.230591 
	C328.619873,290.703094 330.539703,292.046021 334.800262,291.721649 
	C346.468597,290.833313 354.147217,284.553040 359.129333,274.388702 
	C359.859589,272.898926 360.545776,271.386719 361.315735,269.918121 
	C361.424713,269.710266 361.895782,269.692291 362.816620,269.371063 
	C363.085419,270.605194 363.571045,271.763092 363.548309,272.910919 
	C363.432831,278.736023 363.090790,284.557404 363.023102,290.382355 
	C362.987640,293.430817 361.998230,294.953064 358.676025,294.939819 
	C340.025085,294.865356 321.373627,294.931885 302.722504,294.882324 
	C301.589264,294.879303 300.457642,294.291992 298.143311,293.647278 
	C299.941650,292.616974 300.586029,291.925873 301.214081,291.940399 
	C305.205933,292.032684 305.748352,289.583496 305.736053,286.378510 
	C305.683136,272.556274 305.717529,258.733734 305.724701,244.911285 
	C305.728516,237.583740 305.638794,230.254044 305.793518,222.929565 
	C305.872406,219.196899 305.465363,216.215027 300.718658,216.257782 
	C300.240814,216.262085 299.756714,215.572083 298.225128,214.401459 
	C300.727661,213.919556 302.179718,213.400726 303.633209,213.396561 
	C320.451813,213.348343 337.271606,213.477325 354.088684,213.314560 
	C358.111908,213.275650 359.900513,214.527527 359.784729,218.666016 
	C359.620697,224.529419 359.743103,230.400818 358.580872,236.774887 
	C357.240204,234.267273 355.881622,231.769028 354.562134,229.250320 
	C350.248840,221.016754 343.722504,216.508011 334.162018,216.553406 
	C330.421448,216.571182 328.675049,217.644821 328.765198,221.669418 
	C328.951630,229.991852 328.954254,238.325241 328.745300,246.646912 
	C328.631836,251.165787 330.707031,252.086212 334.628967,251.378159 
	C339.826233,250.439850 342.560364,246.845566 344.646759,242.500793 
	C345.464325,240.798233 346.092316,239.004639 346.806610,237.252502 
	C347.250214,237.341278 347.693787,237.430054 348.137390,237.518829 
	C348.137390,248.506302 348.137390,259.493774 348.137390,270.481262 
	C347.767395,270.612885 347.397400,270.744507 347.027405,270.876160 
	C345.129486,266.837036 343.231567,262.797913 341.596863,258.443878 
	C343.213928,259.422516 344.567871,260.716095 346.404266,262.470642 
	C346.404266,256.610413 346.404266,251.277924 346.404266,245.212494 
	C342.888245,248.480621 340.030121,251.137253 337.107147,253.854141 
	C338.052246,254.949753 339.000305,256.048767 339.948334,257.147766 
M327.395935,254.477554 
	C327.267883,252.982590 327.139862,251.487640 326.733551,249.386047 
	C326.393219,248.454651 325.757690,247.522430 325.760223,246.591980 
	C325.777222,240.361923 326.015381,234.132309 326.021393,227.902420 
	C326.034607,214.237808 327.504089,216.248810 314.103882,215.848328 
	C309.235718,215.702850 307.810272,217.519287 307.859528,222.221237 
	C308.059906,241.349884 307.947235,260.481812 307.949432,279.612518 
	C307.951050,293.453064 307.948639,293.313873 321.667969,293.114868 
	C325.879211,293.053802 327.127045,291.446045 327.065033,287.453217 
	C326.897186,276.643005 327.028473,265.828217 327.395935,254.477554 
M345.311920,292.490845 
	C348.592896,292.670288 351.872772,292.873932 355.155151,293.022614 
	C358.715851,293.183929 360.901611,291.510834 361.261475,287.937256 
	C361.700989,283.572784 361.929962,279.187073 362.250000,274.810547 
	C357.610992,281.966827 352.207794,287.751190 345.311920,292.490845 
z"/>
<path fill="#F0333A" opacity="1.000000" stroke="none" 
	d="
M215.428253,218.504822 
	C215.428253,218.504822 215.768768,218.667603 216.088470,219.042801 
	C217.287872,219.931747 218.167572,220.445496 219.047256,220.959229 
	C219.047256,220.959244 219.407013,221.221451 219.646286,221.704407 
	C221.356308,225.189529 222.827072,228.191727 224.297821,231.193909 
	C224.482300,232.211136 224.666763,233.228378 224.692932,234.893158 
	C224.628235,236.686172 224.721848,237.831650 224.815445,238.977127 
	C224.753006,239.698700 224.690567,240.420273 224.292358,241.711670 
	C221.370972,246.611725 218.785355,250.941956 216.199722,255.272186 
	C216.199722,255.272186 215.918488,255.541443 215.519989,255.704971 
	C214.750458,256.173798 214.379410,256.479095 214.008362,256.784424 
	C214.008377,256.784424 213.894455,256.853455 213.440491,256.853577 
	C208.046280,258.049957 203.154877,259.591797 198.145645,260.299835 
	C195.556595,260.665771 192.758362,259.551819 190.425934,259.057526 
	C196.032013,258.449646 199.301132,255.174210 199.706787,250.353668 
	C200.413086,241.960114 200.732056,233.444305 200.057800,225.072830 
	C199.821243,222.135864 196.185791,219.472641 194.273041,216.351440 
	C197.092636,215.513916 199.741531,215.009369 202.390427,214.504837 
	C202.723679,214.555649 203.056946,214.606445 203.978470,214.901260 
	C207.563660,215.851974 210.560577,216.558685 213.557495,217.265396 
	C213.557495,217.265396 213.702774,217.320953 213.887192,217.594742 
	C214.523819,218.080627 214.976044,218.292725 215.428253,218.504822 
z"/>
<path fill="#D03146" opacity="1.000000" stroke="none" 
	d="
M379.615112,225.204025 
	C380.789459,226.122818 382.358154,227.182480 383.172546,228.658356 
	C389.018829,239.253632 394.514435,250.046234 400.515167,260.551270 
	C405.439301,269.171570 410.900208,277.485596 416.136597,285.927063 
	C417.564178,288.228424 418.779694,292.201385 420.542053,292.471222 
	C426.221039,293.340698 432.113434,292.923645 437.908173,292.661652 
	C438.256226,292.645935 439.164154,289.351074 438.620941,288.098328 
	C436.656708,283.568420 434.183594,279.259155 431.891846,274.286835 
	C431.881073,273.707031 431.959259,273.290314 431.959259,273.290314 
	C434.120270,276.831055 436.365631,280.323669 438.420654,283.924866 
	C440.933990,288.329285 442.840851,293.331543 449.576630,293.650757 
	C436.316833,295.139252 423.452423,294.902130 410.590332,294.915588 
	C410.509918,294.328674 410.429504,293.741760 410.349121,293.154846 
	C411.457916,292.714478 412.718781,292.471924 413.628601,291.772675 
	C414.389740,291.187653 415.420197,289.711121 415.171967,289.239166 
	C410.729767,280.793091 406.110718,272.440033 401.529663,264.066986 
	C400.901642,264.088165 400.273590,264.109344 399.645569,264.130524 
	C394.305511,272.953186 388.965454,281.775818 383.143188,291.395172 
	C387.601349,291.946136 390.956299,292.360748 394.311249,292.775391 
	C394.264069,293.282013 394.216919,293.788635 394.169739,294.295258 
	C386.406372,294.295258 378.643005,294.295258 370.254089,294.295258 
	C371.083710,293.197205 371.409302,292.465759 371.648804,292.492950 
	C378.759766,293.300232 380.744354,287.746399 383.494293,283.082245 
	C387.551758,276.200378 391.580597,269.298187 395.817261,262.527069 
	C397.639709,259.614410 397.560242,257.179108 395.839081,254.222549 
	C390.316650,244.736267 385.034851,235.109894 379.615112,225.204025 
z"/>
<path fill="#B82B47" opacity="1.000000" stroke="none" 
	d="
M258.239258,294.777344 
	C258.228027,292.488861 258.827576,290.359802 258.833496,288.229065 
	C258.897278,265.255463 258.826660,242.281464 258.909912,219.307999 
	C258.921600,216.086426 257.755951,214.740845 254.543823,214.848877 
	C250.883652,214.971985 247.200043,215.087891 243.555740,214.816284 
	C239.116943,214.485489 237.783600,216.383682 237.812851,220.645432 
	C237.956863,241.631424 237.851608,262.619049 237.900421,283.605927 
	C237.908646,287.145386 238.240158,290.684082 238.638580,294.455994 
	C236.011398,294.688812 233.167969,294.688812 230.324524,294.688812 
	C230.006104,294.070557 229.687683,293.452271 229.369263,292.834015 
	C239.411026,291.624298 236.514755,284.561157 236.578339,279.118805 
	C236.794327,260.632233 236.586670,242.139709 236.913330,223.656067 
	C237.004974,218.470963 235.113052,215.951752 229.554825,216.204758 
	C232.350800,212.580811 266.591400,211.907578 272.813721,215.230026 
	C270.422668,215.915207 268.929932,216.629181 267.395752,216.733475 
	C260.449615,217.205719 260.410858,217.143646 260.399414,224.249634 
	C260.367493,244.071548 260.357971,263.893494 260.358490,283.715454 
	C260.358704,291.409698 260.381836,291.409698 268.439087,291.763245 
	C267.683136,292.384064 266.582336,292.553925 265.655518,293.049286 
	C265.229858,293.276794 265.145599,294.143127 264.906525,294.719788 
	C262.795837,294.791840 260.685120,294.863922 258.239258,294.777344 
z"/>
<path fill="#AD2341" opacity="1.000000" stroke="none" 
	d="
M190.054642,259.106506 
	C192.758362,259.551819 195.556595,260.665771 198.145645,260.299835 
	C203.154877,259.591797 208.046280,258.049957 213.375458,256.867950 
	C207.605667,258.452026 201.525665,260.620056 195.268707,261.443420 
	C187.064651,262.523010 186.991516,262.066711 186.957138,270.554413 
	C186.935654,275.858582 187.061691,281.165497 186.929886,286.466400 
	C186.840988,290.042084 188.382843,291.597504 191.922516,291.657013 
	C194.987747,291.708557 198.047562,292.081757 201.085739,293.254333 
	C195.467865,296.834320 189.433762,294.593903 183.607513,294.766113 
	C184.356415,293.526855 185.830719,292.618713 185.841553,291.693420 
	C185.957520,281.789642 185.842010,271.883179 185.789993,261.977448 
	C185.951675,261.122284 186.113358,260.267151 186.082001,258.733459 
	C185.888962,243.668411 185.888962,229.281845 185.888962,214.155060 
	C179.661667,214.155060 174.075623,214.242188 168.493866,214.124649 
	C164.724976,214.045319 163.719025,215.666229 164.966644,219.043793 
	C164.924500,242.365387 164.882339,265.686981 164.721588,289.796265 
	C164.447372,291.960022 164.291763,293.336090 164.136139,294.712128 
	C161.466217,294.712128 158.796295,294.712128 155.684662,294.712128 
	C156.204224,293.532074 156.354187,292.762970 156.580490,292.739777 
	C163.195480,292.062836 163.313431,287.606598 163.250763,282.367645 
	C163.033676,264.219177 163.165146,246.066559 163.168625,227.915512 
	C163.170319,219.048904 163.174973,219.048904 156.491959,215.049545 
	C159.155594,212.670486 192.762146,211.924011 202.088745,214.274139 
	C199.741531,215.009369 197.092636,215.513916 193.825378,216.389008 
	C189.897690,216.506821 186.815140,216.305466 186.871414,221.177460 
	C187.001053,232.399506 186.816574,243.626450 187.075287,254.844131 
	C187.108566,256.287048 189.015610,257.686768 190.054642,259.106506 
z"/>
<path fill="#DB3445" opacity="1.000000" stroke="none" 
	d="
M376.941711,216.043259 
	C377.767395,218.506165 378.593048,220.969055 379.300598,223.701416 
	C376.134491,220.603745 373.086487,217.236633 370.035004,213.865692 
	C381.462158,213.865692 393.543610,213.865692 407.066498,213.865692 
	C404.471741,215.404251 402.943207,216.310577 400.654694,217.667542 
	C402.692596,221.465271 404.743774,225.329666 406.835052,229.172272 
	C408.662811,232.530563 410.536865,235.863632 412.388123,239.209152 
	C414.008575,242.137512 415.676422,242.197647 417.466492,239.339233 
	C421.436768,232.999374 425.430450,226.674194 429.829895,219.972687 
	C430.399445,219.284943 430.553650,218.967514 430.707855,218.650085 
	C430.840973,218.117203 430.974091,217.584320 431.411835,216.485016 
	C433.445221,213.695419 435.079163,213.085617 436.494263,216.199371 
	C430.764771,225.324036 425.095581,234.487457 419.269318,243.549911 
	C417.512604,246.282333 417.584442,248.565674 419.308472,251.304321 
	C422.129333,255.785294 424.596741,260.488770 427.267456,265.460052 
	C423.609528,260.022980 419.876160,254.237549 416.214081,248.407379 
	C415.794220,247.738907 416.041901,246.498505 415.525574,246.066422 
	C408.798981,240.437668 407.435822,231.564346 402.561859,224.835510 
	C400.712433,222.282211 398.981262,219.615433 396.881958,217.283249 
	C395.898499,216.190704 394.170685,215.156876 392.778076,215.154053 
	C387.809418,215.143936 382.839905,215.587387 377.413330,215.848602 
	C376.955994,215.838043 376.764984,215.859024 376.764984,215.859024 
	C376.764984,215.859024 376.941711,216.043259 376.941711,216.043259 
M372.270020,215.306839 
	C372.378113,215.445663 372.486237,215.584503 372.594330,215.723328 
	C372.559448,215.564072 372.524597,215.404831 372.270020,215.306839 
z"/>
<path fill="#360E42" opacity="1.000000" stroke="none" 
	d="
M53.382919,150.364456 
	C54.339558,150.122726 55.667301,149.996552 56.995033,149.996597 
	C187.020355,150.002106 317.045654,150.017197 447.536469,150.099228 
	C445.880768,150.445053 443.759644,150.966232 441.638397,150.966873 
	C314.159180,151.005905 186.679993,151.004044 59.200790,150.983124 
	C57.385170,150.982834 55.569603,150.693405 53.382919,150.364456 
z"/>
<path fill="#F43339" opacity="1.000000" stroke="none" 
	d="
M265.288910,294.749023 
	C265.145599,294.143127 265.229858,293.276794 265.655518,293.049286 
	C266.582336,292.553925 267.683136,292.384064 268.889008,291.845764 
	C269.773987,291.404053 270.482758,291.197784 271.903381,290.938232 
	C273.987305,290.146057 275.359406,289.407135 276.731537,288.668182 
	C276.731537,288.668182 276.855896,288.903046 277.097717,288.708252 
	C278.478119,287.247314 279.616638,285.981171 280.755157,284.714996 
	C280.755157,284.714996 280.989471,284.323975 281.312683,284.065613 
	C281.841675,283.480804 282.047455,283.154388 282.253235,282.827972 
	C282.365936,282.679504 282.478668,282.531006 282.841736,282.150269 
	C283.092133,281.917999 283.130371,281.664490 283.130371,281.664490 
	C283.130371,281.664490 283.266785,281.361572 283.619232,281.120880 
	C284.379913,280.106750 284.788177,279.333344 285.196442,278.559906 
	C285.196442,278.559906 285.427246,278.146942 285.807800,277.826050 
	C286.333191,277.187225 286.478027,276.869324 286.622864,276.551392 
	C286.760681,276.216034 286.898499,275.880707 287.453278,275.176575 
	C288.259155,273.900635 288.648071,272.993439 289.036957,272.086243 
	C289.092712,271.916962 289.148499,271.747650 289.655640,271.243347 
	C291.184875,270.602417 292.262756,270.296448 293.340637,269.990509 
	C293.280823,271.052887 293.220978,272.115265 293.004517,273.912231 
	C292.805542,276.403717 292.763214,278.160614 292.720886,279.917542 
	C292.673676,280.663879 292.626465,281.410248 292.248169,282.766785 
	C291.237579,287.112885 290.558044,290.848846 289.878540,294.584778 
	C281.809448,294.649261 273.740387,294.713776 265.288910,294.749023 
z"/>
<path fill="#F0333A" opacity="1.000000" stroke="none" 
	d="
M185.499420,262.132324 
	C185.842010,271.883179 185.957520,281.789642 185.841553,291.693420 
	C185.830719,292.618713 184.356415,293.526855 183.310974,294.601013 
	C181.308121,294.723206 179.555908,294.687347 177.383698,294.528320 
	C177.719131,293.645813 178.485779,292.222931 179.228165,292.235474 
	C183.834259,292.313293 184.141998,289.468475 184.024170,285.985596 
	C183.812454,279.727051 183.634064,273.462372 183.699432,267.202911 
	C183.716568,265.559265 184.679977,263.925476 185.499420,262.132324 
z"/>
<path fill="#FC3230" opacity="1.000000" stroke="none" 
	d="
M340.170349,257.283997 
	C339.000305,256.048767 338.052246,254.949753 337.107147,253.854141 
	C340.030121,251.137253 342.888245,248.480621 346.404266,245.212494 
	C346.404266,251.277924 346.404266,256.610413 346.404266,262.470642 
	C344.567871,260.716095 343.213928,259.422516 341.536804,258.098236 
	C340.939850,257.851776 340.666107,257.636017 340.170349,257.283997 
z"/>
<path fill="#C6395C" opacity="1.000000" stroke="none" 
	d="
M436.845398,216.226318 
	C435.079163,213.085617 433.445221,213.695419 431.530090,216.090256 
	C427.751556,216.261932 424.159363,216.261932 420.567169,216.261932 
	C420.574799,215.524826 420.582428,214.787704 420.590057,214.050598 
	C427.989014,214.050598 435.387970,214.050598 442.786926,214.050598 
	C442.899323,214.430420 443.011688,214.810257 443.124084,215.190079 
	C441.148224,215.544464 439.172363,215.898865 436.845398,216.226318 
z"/>
<path fill="#F0333A" opacity="1.000000" stroke="none" 
	d="
M164.572845,294.742981 
	C164.291763,293.336090 164.447372,291.960022 164.746368,290.260498 
	C166.190079,290.491272 167.543900,290.948669 168.774994,291.628357 
	C169.902176,292.250671 170.896774,293.113159 171.987701,294.181793 
	C169.686920,294.587128 167.348251,294.680481 164.572845,294.742981 
z"/>
<path fill="#AD2341" opacity="1.000000" stroke="none" 
	d="
M216.541412,255.208832 
	C218.785355,250.941956 221.370972,246.611725 224.189850,242.059906 
	C224.351746,247.657700 221.820816,252.083450 216.541412,255.208832 
z"/>
<path fill="#B82B47" opacity="1.000000" stroke="none" 
	d="
M290.234436,294.596558 
	C290.558044,290.848846 291.237579,287.112885 292.168640,283.132629 
	C291.810211,286.794983 291.200287,290.701660 290.234436,294.596558 
z"/>
<path fill="#BD6FD2" opacity="1.000000" stroke="none" 
	d="
M83.064865,216.020096 
	C83.051430,215.561478 83.038002,215.102875 83.019875,214.300186 
	C86.374672,213.928070 89.734161,213.900024 93.542770,213.966080 
	C93.933945,214.915756 93.875999,215.771317 93.479141,216.791901 
	C89.781776,216.644638 86.423317,216.332367 83.064865,216.020096 
z"/>
<path fill="#A157B7" opacity="1.000000" stroke="none" 
	d="
M58.681732,213.753418 
	C59.249226,214.426422 59.491451,214.974915 59.842911,215.802704 
	C57.604977,216.082001 55.257809,216.082001 52.910637,216.082001 
	C52.878071,215.425293 52.845509,214.768585 52.812943,214.111893 
	C54.660782,213.950882 56.508621,213.789886 58.681732,213.753418 
z"/>
<path fill="#AD2341" opacity="1.000000" stroke="none" 
	d="
M224.370193,230.821808 
	C222.827072,228.191727 221.356308,225.189529 219.803696,221.861755 
	C221.295410,224.507355 222.868988,227.478546 224.370193,230.821808 
z"/>
<path fill="#DB3445" opacity="1.000000" stroke="none" 
	d="
M431.808594,272.964813 
	C431.959259,273.290314 431.881073,273.707031 431.838928,273.915436 
	C430.282806,271.575439 428.768829,269.027039 427.260864,266.104797 
	C428.730560,268.033722 430.194244,270.336517 431.808594,272.964813 
z"/>
<path fill="#AD2341" opacity="1.000000" stroke="none" 
	d="
M213.330170,217.029938 
	C210.560577,216.558685 207.563660,215.851974 204.223541,214.964233 
	C206.954498,215.453629 210.028687,216.124054 213.330170,217.029938 
z"/>
<path fill="#A157B7" opacity="1.000000" stroke="none" 
	d="
M86.225067,294.688965 
	C85.870392,294.031433 85.876678,293.487701 85.881775,292.671082 
	C87.317924,292.398193 88.755264,292.398193 90.192604,292.398193 
	C90.234192,293.000336 90.275772,293.602509 90.317360,294.204651 
	C89.073586,294.404022 87.829811,294.603363 86.225067,294.688965 
z"/>
<path fill="#A157B7" opacity="1.000000" stroke="none" 
	d="
M56.781864,292.319763 
	C57.133423,292.973724 57.132614,293.511139 57.134552,294.318207 
	C55.715343,294.587860 54.293392,294.587860 52.871445,294.587860 
	C52.831631,293.978363 52.791817,293.368866 52.752003,292.759369 
	C53.977833,292.574005 55.203667,292.388611 56.781864,292.319763 
z"/>
<path fill="#B82B47" opacity="1.000000" stroke="none" 
	d="
M293.493713,269.742279 
	C292.262756,270.296448 291.184875,270.602417 289.789185,271.011719 
	C290.392517,269.878876 291.313721,268.642731 292.234894,267.406555 
	C292.705505,268.102386 293.176147,268.798218 293.493713,269.742279 
z"/>
<path fill="#B82B47" opacity="1.000000" stroke="none" 
	d="
M292.888550,279.626282 
	C292.763214,278.160614 292.805542,276.403717 292.946930,274.307465 
	C293.049408,275.757111 293.052795,277.546082 292.888550,279.626282 
z"/>
<path fill="#AD2341" opacity="1.000000" stroke="none" 
	d="
M224.966476,238.720795 
	C224.721848,237.831650 224.628235,236.686172 224.688110,235.282730 
	C224.933563,236.171341 225.025543,237.317902 224.966476,238.720795 
z"/>
<path fill="#B82B47" opacity="1.000000" stroke="none" 
	d="
M276.382996,288.711182 
	C275.359406,289.407135 273.987305,290.146057 272.267975,290.886475 
	C273.292023,290.176697 274.663239,289.465424 276.382996,288.711182 
z"/>
<path fill="#B82B47" opacity="1.000000" stroke="none" 
	d="
M280.455994,284.832764 
	C279.616638,285.981171 278.478119,287.247314 277.020020,288.600464 
	C277.852600,287.441833 279.004730,286.196198 280.455994,284.832764 
z"/>
<path fill="#B82B47" opacity="1.000000" stroke="none" 
	d="
M288.812347,272.283630 
	C288.648071,272.993439 288.259155,273.900635 287.597595,274.945618 
	C287.745850,274.215942 288.166809,273.348480 288.812347,272.283630 
z"/>
<path fill="#B82B47" opacity="1.000000" stroke="none" 
	d="
M284.954102,278.681641 
	C284.788177,279.333344 284.379913,280.106750 283.727295,280.994720 
	C283.892548,280.340607 284.302155,279.571991 284.954102,278.681641 
z"/>
<path fill="#AD2341" opacity="1.000000" stroke="none" 
	d="
M218.918610,220.665588 
	C218.167572,220.445496 217.287872,219.931747 216.244690,219.148651 
	C216.984116,219.376862 217.887039,219.874420 218.918610,220.665588 
z"/>
<path fill="#B82B47" opacity="1.000000" stroke="none" 
	d="
M282.049194,282.877258 
	C282.047455,283.154388 281.841675,283.480804 281.460999,283.892578 
	C281.472412,283.627472 281.658783,283.277008 282.049194,282.877258 
z"/>
<path fill="#AD2341" opacity="1.000000" stroke="none" 
	d="
M214.262772,256.776825 
	C214.379410,256.479095 214.750458,256.173798 215.361694,255.818268 
	C215.240311,256.101776 214.878754,256.435516 214.262772,256.776825 
z"/>
<path fill="#C6395C" opacity="1.000000" stroke="none" 
	d="
M430.543640,218.735352 
	C430.553650,218.967514 430.399445,219.284943 430.093384,219.687546 
	C430.087494,219.455338 430.233459,219.137985 430.543640,218.735352 
z"/>
<path fill="#AD2341" opacity="1.000000" stroke="none" 
	d="
M215.299133,218.284485 
	C214.976044,218.292725 214.523819,218.080627 213.947357,217.644012 
	C214.272064,217.634399 214.721039,217.849274 215.299133,218.284485 
z"/>
<path fill="#B82B47" opacity="1.000000" stroke="none" 
	d="
M283.035614,281.658875 
	C283.130371,281.664490 283.092133,281.917999 283.029938,281.943451 
	C282.967743,281.968903 282.940857,281.653259 283.035614,281.658875 
z"/>
<path fill="#B82B47" opacity="1.000000" stroke="none" 
	d="
M286.408081,276.705322 
	C286.478027,276.869324 286.333191,277.187225 285.967041,277.651123 
	C285.894897,277.484497 286.044098,277.171875 286.408081,276.705322 
z"/>
<path fill="#A157B7" opacity="1.000000" stroke="none" 
	d="
M95.903328,213.864670 
	C95.843369,213.990768 95.669289,214.021805 95.234299,214.007202 
	C95.200943,213.740891 95.472878,213.676926 95.903328,213.864670 
z"/>
<path fill="#400851" opacity="1.000000" stroke="none" 
	d="
M83.000473,216.485443 
	C86.423317,216.332367 89.781776,216.644638 93.540619,217.048752 
	C95.653564,220.155365 98.017494,222.993515 98.896095,226.234360 
	C99.780548,229.496780 99.364708,233.167343 99.210289,236.645401 
	C98.730011,247.462463 95.535408,250.726425 84.431831,251.757812 
	C83.643837,250.322876 82.918999,248.788574 82.907364,247.248886 
	C82.831009,237.150162 82.908684,227.050278 83.000473,216.485443 
z"/>
<path fill="#F0333A" opacity="1.000000" stroke="none" 
	d="
M165.305283,218.906067 
	C163.719025,215.666229 164.724976,214.045319 168.493866,214.124649 
	C174.075623,214.242188 179.661667,214.155060 185.888962,214.155060 
	C185.888962,229.281845 185.888962,243.668411 185.898041,258.521606 
	C185.196976,257.977722 183.865707,256.963013 183.872513,255.957367 
	C183.942932,245.531036 184.204468,235.105576 184.465134,224.681152 
	C184.601700,219.219376 181.632202,215.701111 176.263443,216.113892 
	C172.676773,216.389664 169.180588,217.842346 165.305283,218.906067 
z"/>
<path fill="#FE3231" opacity="1.000000" stroke="none" 
	d="
M327.041107,255.015228 
	C327.028473,265.828217 326.897186,276.643005 327.065033,287.453217 
	C327.127045,291.446045 325.879211,293.053802 321.667969,293.114868 
	C307.948639,293.313873 307.951050,293.453064 307.949432,279.612518 
	C307.947235,260.481812 308.059906,241.349884 307.859528,222.221237 
	C307.810272,217.519287 309.235718,215.702850 314.103882,215.848328 
	C327.504089,216.248810 326.034607,214.237808 326.021393,227.902420 
	C326.015381,234.132309 325.777222,240.361923 325.760223,246.591980 
	C325.757690,247.522430 326.393219,248.454651 326.606262,249.892914 
	C324.823944,252.162674 324.444611,253.770172 327.041107,255.015228 
z"/>
<path fill="#FD3231" opacity="1.000000" stroke="none" 
	d="
M345.209534,292.198547 
	C352.207794,287.751190 357.610992,281.966827 362.250000,274.810547 
	C361.929962,279.187073 361.700989,283.572784 361.261475,287.937256 
	C360.901611,291.510834 358.715851,293.183929 355.155151,293.022614 
	C351.872772,292.873932 348.592896,292.670288 345.209534,292.198547 
z"/>
<path fill="#FA3438" opacity="1.000000" stroke="none" 
	d="
M327.218506,254.746399 
	C324.444611,253.770172 324.823944,252.162674 326.745392,250.196228 
	C327.139862,251.487640 327.267883,252.982590 327.218506,254.746399 
z"/>
<path fill="#450749" opacity="1.000000" stroke="none" 
	d="
M190.425934,259.057526 
	C189.015610,257.686768 187.108566,256.287048 187.075287,254.844131 
	C186.816574,243.626450 187.001053,232.399506 186.871414,221.177460 
	C186.815140,216.305466 189.897690,216.506821 193.654694,216.721985 
	C196.185791,219.472641 199.821243,222.135864 200.057800,225.072830 
	C200.732056,233.444305 200.413086,241.960114 199.706787,250.353668 
	C199.301132,255.174210 196.032013,258.449646 190.425934,259.057526 
z"/>
<path fill="#CD435F" opacity="1.000000" stroke="none" 
	d="
M372.379883,215.276215 
	C372.524597,215.404831 372.559448,215.564072 372.594330,215.723328 
	C372.486237,215.584503 372.378113,215.445663 372.379883,215.276215 
z"/>
<path fill="#FD3231" opacity="1.000000" stroke="none" 
	d="
M376.967499,216.019440 
	C376.941711,216.043259 376.764984,215.859024 376.764984,215.859024 
	C376.764984,215.859024 376.955994,215.838043 376.998352,215.890945 
	C377.040710,215.943848 376.993286,215.995621 376.967499,216.019440 
z"/>
</svg>